<svg width="14" height="16" viewBox="0 0 14 16" fill="none" xmlns="http://www.w3.org/2000/svg">
<path d="M12.8948 6.84031L7.04495 0.37722C6.81749 0.125705 6.54477 0 6.22726 0C5.91567 0 5.64613 0.125705 5.41848 0.37722L4.7446 1.12178C4.51692 1.36009 4.40311 1.65792 4.40311 2.01535C4.40311 2.37272 4.51692 2.67055 4.7446 2.90892L7.37747 5.82768H1.05128C0.739852 5.82768 0.486741 5.95175 0.292044 6.2C0.0973482 6.44824 0 6.74774 0 7.09843V8.36925C0 8.72005 0.0973797 9.01944 0.292044 9.26769C0.486709 9.51594 0.739852 9.6399 1.05128 9.6399H7.37734L4.7445 12.549C4.51682 12.8003 4.40301 13.1015 4.40301 13.4524C4.40301 13.8032 4.51682 14.1044 4.7445 14.3557L5.41839 15.1003C5.65211 15.3452 5.92165 15.4677 6.22717 15.4677C6.53872 15.4677 6.81138 15.3452 7.04488 15.1003L12.8947 8.63722C13.1164 8.39231 13.2273 8.09124 13.2273 7.73377C13.2273 7.3698 13.1164 7.07183 12.8948 6.84031Z" fill="white"/>
</svg>
