<svg width="112" height="97" viewBox="0 0 112 97" fill="none" xmlns="http://www.w3.org/2000/svg">
<path d="M103.509 6.05936L103.139 5.1232C103.128 5.09633 103.107 5.07414 103.081 5.06217L102.161 4.64606C94.5927 1.21999 83.9171 0.37464 74.4717 0H63.8334C63.7132 0 63.6766 0.161771 63.7847 0.213455L85.6369 10.6546C85.7603 10.7133 85.692 10.8961 85.5596 10.8616C75.7319 8.3037 65.8037 7.00896 56.0001 7.00896C46.228 7.00896 36.3321 8.29581 26.5346 10.8374C26.4013 10.8719 26.3336 10.687 26.4587 10.6295L49.0776 0.214623C49.1872 0.164106 49.1515 0.000583686 49.0305 0.000583686H37.5287C28.0836 0.375224 17.4074 1.22057 9.83928 4.64665L8.91989 5.06275C8.89323 5.07473 8.87213 5.09663 8.86158 5.12378L8.49125 6.05995C0.74583 25.6201 -1.45509 58.8264 0.892033 79.629L1.01509 80.7199L1.88585 81.393C13.9856 90.7441 30.1647 95.5519 40.3428 96.8277L41.6589 96.9927C42.0867 97.0464 42.4954 96.7999 42.6466 96.3976L49.271 78.7585C49.4776 78.2087 49.126 77.6083 48.5441 77.5172L46.5114 77.1989C39.4231 76.089 29.3804 73.1468 20.8934 65.4759C20.7123 65.3121 20.887 65.0177 21.1161 65.1024C21.8058 65.3579 22.5664 65.654 23.3495 65.9589C25.2686 66.7061 27.2533 67.4787 28.5483 67.7853C37.6497 69.9421 46.8791 71.0359 55.9995 71.0359V70.8742H56.0185L56.0197 71.0359C65.1216 71.0359 74.3507 69.9424 83.4512 67.7853C84.7468 67.4784 86.7315 66.7061 88.6509 65.9586C89.4334 65.6537 90.1937 65.3576 90.8831 65.1024C91.1123 65.0177 91.2869 65.3124 91.1058 65.4759C82.6473 73.1129 72.5919 76.0476 65.4879 77.1566L63.4557 77.4737C62.8738 77.5645 62.5217 78.1643 62.7279 78.7141L69.3536 96.3967C69.5044 96.7994 69.9135 97.0461 70.3412 96.9924L71.6585 96.8274C81.836 95.5516 98.0139 90.7438 110.114 81.3927L110.985 80.7196L111.108 79.6287C113.455 58.8264 111.254 25.6198 103.509 6.05936ZM34.3787 54.0828C26.1508 54.814 19.2864 47.9732 20.0191 39.7729C20.5811 33.4869 25.6597 28.4248 31.9672 27.8641C40.1951 27.1329 47.0595 33.9737 46.3268 42.174C45.7645 48.46 40.6859 53.5222 34.3787 54.0828ZM80.0338 54.0828C71.8059 54.814 64.9415 47.9732 65.6742 39.7729C66.2362 33.4869 71.3148 28.4248 77.6222 27.8641C85.8499 27.1329 92.7146 33.9737 91.9819 42.174C91.4196 48.46 86.341 53.5222 80.0338 54.0828Z" fill="url(#paint0_linear)"/>
<defs>
<linearGradient id="paint0_linear" x1="56" y1="0" x2="56" y2="113.684" gradientUnits="userSpaceOnUse">
<stop stop-color="#62D100" stop-opacity="0.76"/>
<stop offset="0.891" stop-color="#3C641C" stop-opacity="0.102"/>
<stop offset="1" stop-color="#17181C"/>
</linearGradient>
</defs>
</svg>
