<svg width="176" height="69" viewBox="0 0 176 69" fill="none" xmlns="http://www.w3.org/2000/svg">
<path d="M36.9198 11.96L32.1198 12.16L28.2798 11.96C25.7465 15.0267 24.4798 17.3333 24.4798 18.88C24.4798 19.2267 24.5465 19.5333 24.6798 19.8C24.3865 19.96 24.3998 20.0933 24.7198 20.2C25.0665 20.3067 25.5198 20.4 26.0798 20.48C26.6398 20.56 27.2131 20.6267 27.7998 20.68C28.4131 20.7333 28.8398 20.7867 29.0798 20.84L32.4798 21.52C33.4931 21.7333 34.1731 21.8533 34.5198 21.88L38.4798 22.32L42.0798 23.36C42.0798 23.36 42.2265 23.5067 42.5198 23.8C42.8398 24.0667 43.1065 24.2 43.3198 24.2L43.9598 25.68C44.1465 26.08 44.1731 26.3733 44.0398 26.56C43.9331 26.72 43.8798 26.9733 43.8798 27.32C43.8798 27.4267 43.8798 27.5333 43.8798 27.64C43.9065 27.72 43.9331 27.8267 43.9598 27.96L43.5198 28.2C43.5198 29.1333 43.3065 30.04 42.8798 30.92L42.4798 31.76L42.0798 32.36C42.0798 32.36 42.0131 32.4667 41.8798 32.68C41.7731 32.8667 41.6531 33.0933 41.5198 33.36C41.3865 33.6267 41.2665 33.8933 41.1598 34.16C41.0531 34.4 40.9998 34.5733 40.9998 34.68L37.6798 38.44C37.5998 38.5467 37.4398 38.6533 37.1998 38.76C36.9865 38.8667 36.7465 39 36.4798 39.16C36.2398 39.32 36.0265 39.5067 35.8398 39.72C35.6531 39.9333 35.5598 40.2 35.5598 40.52V41.36L35.1598 41.6C35.0265 42.2133 34.6665 42.52 34.0798 42.52C33.9198 42.52 33.8131 42.4533 33.7598 42.32C33.7065 42.16 33.6531 41.9867 33.5998 41.8C33.5731 41.6133 33.5198 41.4533 33.4398 41.32C33.3598 41.16 33.2398 41.08 33.0798 41.08C33.0265 41.08 32.9598 41.0933 32.8798 41.12C32.8265 41.12 32.7465 41.1333 32.6398 41.16C32.3998 43.1067 31.0665 44.08 28.6398 44.08C28.2931 44.2933 27.8531 44.5467 27.3198 44.84C26.8131 45.1333 26.2131 45.4533 25.5198 45.8C25.0131 46.04 24.5331 46.2267 24.0798 46.36C23.6265 46.4933 23.3998 46.3467 23.3998 45.92C23.3998 45.92 23.3598 45.88 23.2798 45.8C23.2265 45.72 23.1998 45.64 23.1998 45.56C21.3065 45.9333 20.4665 46.4267 20.6798 47.04C20.7598 47.2533 20.7598 47.4 20.6798 47.48C20.6265 47.5867 20.5198 47.6667 20.3598 47.72L19.9198 47.84C19.7865 47.8667 19.6931 47.9467 19.6398 48.08H16.9198C16.3065 48.08 15.7065 48.0533 15.1198 48C14.5331 47.9733 13.9465 47.9333 13.3598 47.88L11.2798 47.64L10.2398 47.24C9.75981 47.0533 9.30647 46.9067 8.87981 46.8C8.45314 46.6933 8.06647 46.6267 7.7198 46.6L5.1998 46.4L4.5598 46C4.1598 45.76 3.5598 45.56 2.7598 45.4C1.98647 45.2133 1.3998 44.9867 0.999805 44.72C0.946471 44.0533 0.893138 43.4667 0.839805 42.96C0.813138 42.4533 0.799805 42.0267 0.799805 41.68C0.799805 37.0667 2.13314 31.8 4.7998 25.88C5.65314 23.9867 6.89314 21.5067 8.5198 18.44C9.4798 16.6 10.2798 15.0667 10.9198 13.84C11.5865 12.5867 12.0531 11.6533 12.3198 11.04C12.5865 10.4267 12.8531 9.82666 13.1198 9.24C13.3865 8.62666 13.6531 8.01333 13.9198 7.4C14.3465 6.41333 14.7865 5.66666 15.2398 5.16C15.6931 4.62667 16.2531 4.06666 16.9198 3.48L17.1198 3.32C18.1331 2.52 18.9465 2.12 19.5598 2.12L29.7998 1.08C31.3731 0.919997 32.2398 0.839996 32.3998 0.839996C32.9598 0.839996 33.3465 0.919997 33.5598 1.08C34.1731 1.21333 34.8531 1.29333 35.5998 1.31999C36.3731 1.34666 37.0931 1.42666 37.7598 1.56C38.4265 1.69333 38.9865 1.93333 39.4398 2.28C39.8931 2.6 40.1198 3.12 40.1198 3.84C40.1198 3.94666 40.1065 4.08 40.0798 4.24C40.0798 4.37333 40.0665 4.50666 40.0398 4.64C40.0398 4.64 40.0931 4.81333 40.1998 5.16C40.3065 5.50666 40.4265 5.88 40.5598 6.28C40.7198 6.68 40.8531 7.04 40.9598 7.36C41.0931 7.68 41.1598 7.81333 41.1598 7.76C41.1598 8.02666 41.1465 8.24 41.1198 8.4L41.5198 8.6C41.5731 8.62666 41.5998 8.72 41.5998 8.88C41.5998 9.01333 41.5998 9.09333 41.5998 9.12C41.5998 9.44 41.4398 9.82666 41.1198 10.28L40.6798 10.92C40.4931 10.84 40.3331 10.8 40.1998 10.8C39.8798 10.8 39.6665 10.9867 39.5598 11.36C39.4531 11.7333 39.2798 11.92 39.0398 11.92C38.8531 11.92 38.6398 11.8667 38.3998 11.76C38.1865 11.6533 37.9331 11.6 37.6398 11.6C37.3198 11.6 37.0798 11.72 36.9198 11.96ZM17.7598 31.76C17.8398 32.72 17.3598 33.8533 16.3198 35.16L15.2398 36.48C14.8931 36.9067 14.7198 37.3067 14.7198 37.68C14.7198 37.8933 14.8265 38.1467 15.0398 38.44H17.1198C17.4931 38.44 18.0398 38.3733 18.7598 38.24C19.5065 38.1067 20.0798 38.04 20.4798 38.04L20.6798 38.44C20.3065 38.44 19.7865 38.48 19.1198 38.56C18.4798 38.6133 17.8398 38.6933 17.1998 38.8C16.5598 38.9067 15.9998 39.04 15.5198 39.2C15.0398 39.36 14.7998 39.5333 14.7998 39.72C14.7998 39.9333 14.9865 40.0533 15.3598 40.08C15.7331 40.08 16.1731 40.08 16.6798 40.08C16.7598 40.08 16.8798 40.1067 17.0398 40.16C17.1998 40.1867 17.3198 40.2 17.3998 40.2C17.5331 40.2 17.6265 40.1867 17.6798 40.16C17.7331 40.1067 17.8398 40.08 17.9998 40.08C18.2931 40.08 18.6398 40.1333 19.0398 40.24L19.2398 40.32C22.4131 38.7467 24.5731 37.08 25.7198 35.32C25.8531 35.24 25.9465 35.08 25.9998 34.84C26.0531 34.6 26.1731 34.48 26.3598 34.48L27.7998 31.32C27.9598 30.9733 28.0398 30.64 28.0398 30.32C28.0398 29.7333 27.7598 29.24 27.1998 28.84C26.6398 28.44 25.9598 28.12 25.1598 27.88C24.3598 27.6133 23.5065 27.4267 22.5998 27.32C21.7198 27.1867 20.9465 27.12 20.2798 27.12C20.1198 27.84 19.7598 28.64 19.1998 29.52C18.9598 29.8933 18.7198 30.2667 18.4798 30.64C18.2398 31.0133 17.9998 31.3867 17.7598 31.76ZM13.3598 34.88C13.4398 34.9867 13.4531 35.1733 13.3998 35.44C13.3731 35.5733 13.3465 35.7067 13.3198 35.84C13.2931 35.9733 13.2531 36.1067 13.1998 36.24L12.9198 37.08C12.8131 37.32 12.7598 37.5733 12.7598 37.84C12.7598 38.32 13.0265 38.52 13.5598 38.44C13.5598 37.8533 13.7198 37.3067 14.0398 36.8C14.3598 36.2933 14.5198 35.6933 14.5198 35C14.5198 34.4933 14.4131 34.24 14.1998 34.24C13.9598 34.24 13.6798 34.4533 13.3598 34.88ZM33.6798 42.84C33.5465 42.84 33.4798 42.8267 33.4798 42.8C33.4798 42.8 33.5065 42.7733 33.5598 42.72C33.5865 42.6667 33.6265 42.7067 33.6798 42.84ZM33.4798 43.04C33.3731 43.04 33.3198 43.0267 33.3198 43C33.3198 43 33.3331 42.9867 33.3598 42.96C33.4131 42.9067 33.4531 42.9333 33.4798 43.04Z" fill="#D1C80A"/>
<path d="M49.4148 42.48C49.4148 42.2933 49.4015 42.1733 49.3748 42.12C49.1081 42.44 48.9348 42.6267 48.8548 42.68C48.8015 42.7333 48.9881 42.6667 49.4148 42.48ZM60.4948 28.24C60.3881 28.3733 59.9615 28.9067 59.2148 29.84C58.4948 30.7467 57.6415 31.8267 56.6548 33.08C55.6948 34.3333 54.6681 35.64 53.5748 37C52.5081 38.36 51.5748 39.5333 50.7748 40.52L50.8548 40.8C50.8548 40.8 50.8681 40.8533 50.8948 40.96C50.9215 41.0667 50.9348 41.1333 50.9348 41.16C50.9348 41.4 50.8015 41.6267 50.5348 41.84C50.2681 42.0267 50.1615 42.2533 50.2148 42.52C50.2415 42.8667 50.4281 43.04 50.7748 43.04C51.0681 43.04 51.3081 42.92 51.4948 42.68L51.8948 42.24C52.0015 42.1333 52.0948 42.0533 52.1748 42C52.2548 41.9467 52.3748 41.96 52.5348 42.04C53.1215 41.5867 53.7748 40.9733 54.4948 40.2C55.2415 39.4267 56.0548 38.4933 56.9348 37.4C57.7615 36.36 58.4815 35.4133 59.0948 34.56C59.7348 33.68 60.2681 32.8933 60.6948 32.2L61.3348 31.16L61.7748 30.96C61.9881 30.8533 62.1748 30.56 62.3348 30.08C62.5215 29.6 62.7215 29.0933 62.9348 28.56C63.1481 28.0267 63.4015 27.5467 63.6948 27.12C63.9881 26.6933 64.3481 26.48 64.7748 26.48C64.8548 26.48 64.9615 26.5867 65.0948 26.8C65.2281 27.0133 65.3748 27.2533 65.5348 27.52C65.6948 27.76 65.8415 27.9867 65.9748 28.2C66.1348 28.4133 66.2548 28.52 66.3348 28.52C66.6815 28.6267 67.0815 28.7867 67.5348 29C68.0148 29.2133 68.5615 29.48 69.1748 29.8C69.2548 29.8533 69.3481 29.9867 69.4548 30.2C69.5615 30.4133 69.6681 30.64 69.7748 30.88C69.9081 31.12 70.0148 31.3333 70.0948 31.52C70.2015 31.7067 70.2815 31.8 70.3348 31.8V33.24C70.3348 33.3733 70.3615 33.6 70.4148 33.92C70.4415 34.1867 70.3481 34.32 70.1348 34.32L68.0548 39.76C67.8681 40.2133 67.7748 40.6 67.7748 40.92C67.7748 41.0533 67.8681 41.2 68.0548 41.36C68.2681 41.52 68.5081 41.7067 68.7748 41.92C69.0415 42.1067 69.2948 42.32 69.5348 42.56C69.8015 42.8 70.0015 43.0667 70.1348 43.36C69.1481 43.4667 68.2815 43.8133 67.5348 44.4C67.2681 44.6133 66.9748 44.92 66.6548 45.32C66.3348 45.6933 66.0015 46.08 65.6548 46.48C65.3348 46.9067 65.0148 47.3067 64.6948 47.68C64.3748 48.0533 64.0948 48.3333 63.8548 48.52C63.1615 49.0267 62.3215 49.3067 61.3348 49.36L61.1348 50.2C60.9215 50.2 60.7615 50.16 60.6548 50.08C60.5748 50.0267 60.5481 50 60.5748 50C60.5215 50 60.4281 50.0667 60.2948 50.2C60.3215 50.2267 60.3348 50.24 60.3348 50.24C60.3348 50.2667 60.3481 50.2933 60.3748 50.32C60.3215 50.3733 60.2681 50.4 60.2148 50.4C60.0015 50.4 59.9615 50.3333 60.0948 50.2L59.3348 50C59.3615 50 59.3215 50.04 59.2148 50.12C59.1081 50.2 59.0148 50.24 58.9348 50.24C58.8548 50.24 58.7481 50.1467 58.6148 49.96C58.4815 49.8 58.3481 49.6133 58.2148 49.4C58.1081 49.1867 58.0148 48.9867 57.9348 48.8C57.8548 48.6133 57.8015 48.52 57.7748 48.52L56.9348 48.32C56.6415 48.24 56.3881 48.0133 56.1748 47.64C55.9881 47.2933 55.8281 46.88 55.6948 46.4C55.5881 45.92 55.4815 45.4133 55.3748 44.88C55.2948 44.3467 55.2148 43.8667 55.1348 43.44C55.0548 43.44 54.9215 43.4933 54.7348 43.6C54.5748 43.7067 54.3881 43.84 54.1748 44C53.9881 44.1333 53.8148 44.2667 53.6548 44.4C53.5215 44.5067 53.4281 44.56 53.3748 44.56L46.6948 50.2C43.3348 49.2933 41.1615 46.44 40.1748 41.64C40.3081 39.6133 41.4148 37 43.4948 33.8C43.7615 33.4267 43.9881 33.04 44.1748 32.64C44.3881 32.2133 44.5881 31.7867 44.7748 31.36L45.5748 31.32L45.4148 30.32L46.4548 28.64L47.3748 28.76C47.2681 28.5733 47.4415 28.12 47.8948 27.4C48.3481 26.6533 48.8815 25.8533 49.4948 25C50.1348 24.1467 50.7481 23.36 51.3348 22.64C51.9481 21.92 52.3481 21.48 52.5348 21.32C52.6948 21.32 52.9215 21.28 53.2148 21.2C53.5081 21.0933 53.8281 21 54.1748 20.92C54.5215 20.8133 54.8681 20.72 55.2148 20.64C55.5881 20.5333 55.9081 20.48 56.1748 20.48C56.4148 20.48 56.6548 20.36 56.8948 20.12C57.1615 19.8533 57.4148 19.72 57.6548 19.72C57.9748 19.72 58.3481 19.8133 58.7748 20C59.2281 20.16 59.6015 20.24 59.8948 20.24C60.0015 20.24 60.0548 20.28 60.0548 20.36C60.0548 20.44 60.1081 20.48 60.2148 20.48C60.4281 20.48 60.6815 20.4667 60.9748 20.44C61.2948 20.4133 61.5615 20.4933 61.7748 20.68L62.2548 21.68L64.0548 21.96L64.2548 22.36C64.7081 23.32 64.9348 24.08 64.9348 24.64C64.9348 25.68 64.0415 26.6 62.2548 27.4C61.9881 27.5333 61.7081 27.6667 61.4148 27.8C61.1215 27.9333 60.8148 28.08 60.4948 28.24Z" fill="#D1C80A"/>
<path d="M82.2754 35.64L75.4354 47.36C74.9288 47.92 74.3421 48.2 73.6754 48.2C73.1954 48.2 72.7021 48.0133 72.1954 47.64C71.6888 47.2667 71.2221 46.8 70.7954 46.24C70.3688 45.7067 70.0088 45.1467 69.7154 44.56C69.4488 43.9467 69.3288 43.4133 69.3554 42.96C69.3821 42.2667 69.5021 41.5067 69.7154 40.68C69.9554 39.8533 70.2221 39.0133 70.5154 38.16C70.8354 37.28 71.1688 36.4133 71.5154 35.56C71.8621 34.68 72.1821 33.8667 72.4754 33.12C72.6354 32.9333 72.7954 32.64 72.9554 32.24C73.1421 31.8133 73.3154 31.3867 73.4754 30.96C73.6621 30.5067 73.8088 30.1067 73.9154 29.76C74.0488 29.3867 74.1288 29.1733 74.1554 29.12C74.3421 29.12 74.4754 28.9067 74.5554 28.48C74.6621 28.0267 74.8088 27.7467 74.9954 27.64L75.1954 26.84C75.2221 26.6533 75.2754 26.44 75.3554 26.2C75.4354 25.9333 75.5288 25.6533 75.6354 25.36L77.9554 21.6C78.7554 20.2667 79.1554 19.2267 79.1554 18.48C79.1554 18.0267 79.0488 17.6933 78.8354 17.48C78.6221 17.24 78.5154 17.0933 78.5154 17.04C78.5154 16.9333 78.8754 16.7333 79.5954 16.44L81.2754 15.84C81.6221 15.7333 82.0221 15.6 82.4754 15.44C82.9554 15.2533 83.4888 15.0533 84.0754 14.84C84.3154 14.8933 84.6488 14.9867 85.0754 15.12C85.5288 15.2533 85.9821 15.4 86.4354 15.56C86.8888 15.72 87.2754 15.8933 87.5954 16.08C87.9421 16.24 88.1154 16.3867 88.1154 16.52C88.1154 16.6267 88.1021 16.6933 88.0754 16.72L88.4754 17.8L88.3554 18.24C88.3288 18.32 88.2754 18.48 88.1954 18.72C88.1421 18.96 88.0754 19.2267 87.9954 19.52C87.9154 19.8133 87.8354 20.1067 87.7554 20.4C87.6754 20.6667 87.6221 20.8933 87.5954 21.08L87.3954 22.08C87.3421 22.2933 87.2221 22.6533 87.0354 23.16C86.8754 23.6667 86.7954 24.1067 86.7954 24.48L86.3954 24.92C86.3954 24.92 86.2888 25.1333 86.0754 25.56C85.8888 25.9867 85.6754 26.4667 85.4354 27C85.1954 27.5333 84.9688 28.0133 84.7554 28.44C84.5688 28.8667 84.4754 29.08 84.4754 29.08C84.4754 29.1333 84.4888 29.16 84.5154 29.16L89.0354 28.52L89.3954 27.4C90.7288 23.2667 92.7154 20.24 95.3554 18.32C96.3421 17.6 97.3954 17.2667 98.5154 17.32C98.9688 17.1867 99.3154 17.12 99.5554 17.12C100.275 17.12 100.902 17.4267 101.435 18.04C101.995 18.6267 102.275 19.2933 102.275 20.04C102.275 20.6533 102.169 21.28 101.955 21.92L101.675 22.68C101.489 23.1867 101.209 23.72 100.835 24.28C100.489 24.84 100.315 25.3333 100.315 25.76C100.315 25.84 100.342 25.96 100.395 26.12L98.8754 29.32C98.7954 29.48 98.7288 29.72 98.6754 30.04C98.6488 30.3333 98.5821 30.6533 98.4754 31C98.5021 31.16 98.4754 31.36 98.3954 31.6C98.3421 31.84 98.2488 32.0933 98.1154 32.36C98.0088 32.6267 97.9021 32.8933 97.7954 33.16C97.7154 33.4267 97.6754 33.64 97.6754 33.8C97.6754 33.7733 97.5554 33.9867 97.3154 34.44C97.1021 34.8667 96.8621 35.3733 96.5954 35.96C96.3554 36.52 96.1154 37.08 95.8754 37.64C95.6621 38.2 95.5554 38.56 95.5554 38.72C95.5554 38.9333 95.6888 39.04 95.9554 39.04L99.5954 37.08C99.7021 37.0533 99.7688 37.0533 99.7954 37.08C99.8221 37.1333 99.8088 37.2533 99.7554 37.44C99.6221 37.92 99.3154 38.6 98.8354 39.48C98.3554 40.3333 97.8354 41.1733 97.2754 42C96.7154 42.8 96.1688 43.4933 95.6354 44.08C95.1288 44.64 94.7688 44.8533 94.5554 44.72L93.4354 45.88L92.1954 46.52L91.5554 46.92C91.1821 47.16 90.7688 47.28 90.3154 47.28H89.1954C89.0088 47.28 88.7821 47.3467 88.5154 47.48C88.2488 47.6133 87.9821 47.7467 87.7154 47.88C87.4754 48.04 87.2221 48.1867 86.9554 48.32C86.7154 48.4533 86.4888 48.52 86.2754 48.52C85.5288 48.52 84.8888 48.2933 84.3554 47.84C83.8488 47.3867 83.5954 46.7867 83.5954 46.04C83.5954 45.6933 83.6354 45.28 83.7154 44.8C83.8221 44.32 83.9421 43.8533 84.0754 43.4C84.2354 42.9467 84.3821 42.5333 84.5154 42.16C84.6488 41.7867 84.7554 41.5067 84.8354 41.32C85.0488 40.8133 85.2621 40.28 85.4754 39.72C85.6888 39.1333 85.9021 38.5333 86.1154 37.92C86.2221 37.5733 86.3554 37.1333 86.5154 36.6C86.7021 36.0667 86.9021 35.4533 87.1154 34.76C87.1954 34.4667 87.2088 34.32 87.1554 34.32C86.9421 34.32 86.5821 34.3733 86.0754 34.48C85.5688 34.56 85.0354 34.6667 84.4754 34.8C83.9421 34.9333 83.4488 35.08 82.9954 35.24C82.5688 35.3733 82.3288 35.5067 82.2754 35.64Z" fill="#D1C80A"/>
<path d="M100.301 58.96C101.475 58.16 102.675 57.1867 103.901 56.04C105.155 54.92 106.328 53.8 107.421 52.68C108.221 50.8933 108.808 49.32 109.181 47.96C109.581 46.6267 109.755 45.48 109.701 44.52C109.568 44.3867 109.501 44.28 109.501 44.2C109.501 44.2267 109.528 44.2 109.581 44.12C109.661 44.04 109.701 43.8933 109.701 43.68C109.541 43.68 109.461 43.6 109.461 43.44C109.488 43.28 109.448 43.2 109.341 43.2C109.128 43.2 108.995 43.32 108.941 43.56C108.888 43.8 108.848 44.0667 108.821 44.36C108.821 44.6533 108.808 44.92 108.781 45.16C108.755 45.4 108.661 45.52 108.501 45.52C108.261 45.52 107.968 45.3867 107.621 45.12C107.595 45.12 107.168 45.3067 106.341 45.68C106.181 45.76 105.981 45.84 105.741 45.92C105.501 46 105.381 45.92 105.381 45.68C105.381 45.6 105.435 45.48 105.541 45.32C105.675 45.16 105.808 44.9867 105.941 44.8C106.075 44.6133 106.181 44.4267 106.261 44.24C106.368 44.0267 106.408 43.84 106.381 43.68C106.595 42.8267 106.915 42.4 107.341 42.4C107.555 42.4 107.795 42.48 108.061 42.64L108.901 42.2L109.381 42.08C109.568 42.0267 109.661 41.9733 109.661 41.92C109.661 41.8667 109.768 41.84 109.981 41.84C110.195 41.84 110.355 41.6533 110.461 41.28C110.568 40.9067 110.741 40.72 110.981 40.72C113.195 39.2 115.155 36.8267 116.861 33.6C117.421 32.5333 118.741 29.5333 120.821 24.6C121.221 24.12 121.421 23.68 121.421 23.28C121.421 22.72 121.101 22.44 120.461 22.44C120.221 22.44 119.955 22.5333 119.661 22.72C119.395 22.88 119.128 23.0933 118.861 23.36C118.621 23.6 118.381 23.88 118.141 24.2C117.928 24.4933 117.768 24.7733 117.661 25.04L117.261 25.24C117.048 25.6667 116.608 26.2933 115.941 27.12C115.301 27.92 114.608 28.7867 113.861 29.72C113.141 30.6267 112.461 31.5333 111.821 32.44C111.181 33.3467 110.755 34.0933 110.541 34.68C110.435 34.7067 110.301 34.5867 110.141 34.32C109.981 34.08 109.835 34.0133 109.701 34.12C109.595 34.2 109.488 34.3467 109.381 34.56C109.275 34.7467 109.181 34.9467 109.101 35.16C109.021 35.3733 108.955 35.4933 108.901 35.52L109.301 36.36C109.355 36.4933 109.328 36.6533 109.221 36.84C109.115 37.0267 108.995 37.2267 108.861 37.44C108.728 37.6533 108.595 37.88 108.461 38.12C108.328 38.36 108.261 38.6 108.261 38.84H106.781C106.781 38.9467 106.728 39.0533 106.621 39.16C106.541 39.24 106.501 39.2933 106.501 39.32C106.501 39.3733 106.528 39.4267 106.581 39.48L106.981 39.88C107.168 40.0667 107.261 40.28 107.261 40.52C107.261 41.0267 107.008 41.5333 106.501 42.04C105.995 42.52 105.395 43.2 104.701 44.08L103.861 44.72C103.541 44.96 103.221 45.08 102.901 45.08C102.368 45.08 101.835 44.76 101.301 44.12C100.795 43.48 100.328 42.72 99.9014 41.84C99.5014 40.96 99.1547 40.08 98.8614 39.2C98.5947 38.32 98.448 37.64 98.4214 37.16C98.608 36.1467 98.9547 35.3867 99.4614 34.88C99.4614 34.7733 99.5414 34.5733 99.7014 34.28C99.888 33.96 100.088 33.6133 100.301 33.24C100.515 32.8667 100.701 32.4933 100.861 32.12C101.048 31.72 101.141 31.3867 101.141 31.12L101.541 30.48L103.021 28.8C103.101 28.6933 103.208 28.52 103.341 28.28C103.501 28.0133 103.661 27.7467 103.821 27.48C103.981 27.1867 104.141 26.9067 104.301 26.64C104.461 26.3733 104.595 26.1867 104.701 26.08L107.421 23.56C107.501 23.48 107.568 23.4267 107.621 23.4C107.675 23.3733 107.701 23.2933 107.701 23.16C107.701 23.1333 107.675 23.0667 107.621 22.96C105.861 22.4 104.981 21.64 104.981 20.68C104.981 19.9333 105.515 19.2267 106.581 18.56L114.541 18.12C114.541 18.0133 114.715 17.8933 115.061 17.76C115.408 17.6 115.795 17.4533 116.221 17.32C116.675 17.1867 117.115 17.08 117.541 17C117.995 16.8933 118.328 16.84 118.541 16.84C118.861 16.84 119.035 16.88 119.061 16.96C119.088 17.0133 119.155 17.04 119.261 17.04C119.368 17.04 119.408 17.0133 119.381 16.96C119.381 16.88 119.475 16.84 119.661 16.84C119.928 16.84 120.181 16.9467 120.421 17.16C120.688 17.3467 120.928 17.5867 121.141 17.88C121.355 18.1733 121.541 18.48 121.701 18.8C121.861 19.0933 121.981 19.36 122.061 19.6C121.955 20.96 122.435 21.64 123.501 21.64C123.955 21.64 124.381 21.5867 124.781 21.48C124.781 21.32 124.861 21.2133 125.021 21.16C125.208 21.1067 125.421 21.0933 125.661 21.12C125.901 21.1467 126.155 21.1867 126.421 21.24C126.688 21.2667 126.915 21.28 127.101 21.28L127.301 21.68C128.208 21.84 128.981 22.4133 129.621 23.4C130.288 24.3867 130.621 25.6533 130.621 27.2C130.621 28.0533 130.488 28.9067 130.221 29.76C129.955 30.6133 129.595 31.5467 129.141 32.56C128.795 33.3067 128.448 34.0667 128.101 34.84C127.781 35.6133 127.448 36.3867 127.101 37.16L123.541 45.56C123.488 45.6933 123.355 45.84 123.141 46C122.955 46.1867 122.861 46.36 122.861 46.52C122.861 46.4933 122.835 46.64 122.781 46.96C122.728 47.28 122.635 47.5067 122.501 47.64L122.061 47.84C121.955 47.8933 121.781 48.24 121.541 48.88C121.301 49.52 121.061 50.08 120.821 50.56L118.301 51.64C118.275 51.7467 118.141 51.88 117.901 52.04C117.688 52.2 117.461 52.36 117.221 52.52C116.981 52.68 116.781 52.8133 116.621 52.92C116.488 53.0267 116.488 53.08 116.621 53.08C116.701 53.6933 116.448 54.28 115.861 54.84C115.275 55.4 114.688 56.0667 114.101 56.84L113.701 57.08C113.381 56.3867 113.141 56.04 112.981 56.04C112.848 56.04 112.768 56.2 112.741 56.52L112.581 57.64C112.475 58.3333 112.368 58.8 112.261 59.04C112.181 59.28 112.075 59.4 111.941 59.4C111.808 59.4 111.661 59.3067 111.501 59.12C111.368 58.96 111.208 58.88 111.021 58.88C110.861 58.88 110.648 58.9867 110.381 59.2C110.115 59.44 109.795 59.56 109.421 59.56C108.808 59.56 108.501 60.2267 108.501 61.56C108.501 61.9067 108.421 62.1467 108.261 62.28C108.128 62.4133 107.955 62.5067 107.741 62.56C107.528 62.6133 107.315 62.6667 107.101 62.72C106.888 62.8 106.715 62.9467 106.581 63.16C106.448 63.3733 106.301 63.6 106.141 63.84C106.008 64.1067 105.808 64.2933 105.541 64.4L105.101 64.6L100.301 67.96L100.101 67.52C98.9814 67.52 98.4214 67.8 98.4214 68.36C97.728 67.6667 97.1147 67.32 96.5814 67.32C96.3147 67.32 95.9947 67.4667 95.6214 67.76C95.2747 68.0533 94.888 68.2 94.4614 68.2C93.8747 68.2 93.3014 68.0133 92.7414 67.64C92.208 67.2933 91.728 66.8133 91.3014 66.2C90.8747 65.6133 90.528 64.9067 90.2614 64.08C90.0214 63.28 89.9014 62.4267 89.9014 61.52C89.9014 61.0133 89.9947 60.3067 90.1814 59.4C90.368 58.52 90.6747 57.6533 91.1014 56.8C91.528 55.9733 92.1014 55.28 92.8214 54.72C93.5414 54.16 94.4347 53.96 95.5014 54.12C96.088 54.04 96.6614 54.1467 97.2214 54.44C97.808 54.7333 98.328 55.12 98.7814 55.6C99.2347 56.1067 99.5947 56.6533 99.8614 57.24C100.155 57.8533 100.301 58.4267 100.301 58.96Z" fill="#D1C80A"/>
<path d="M134.469 25.52L134.429 25.6L134.109 25.76C134.163 25.7067 134.229 25.6267 134.309 25.52C134.416 25.4133 134.483 25.3467 134.509 25.32V25.44V25.48C134.483 25.48 134.469 25.4933 134.469 25.52ZM175.509 34.4L170.989 43.72L161.549 50.44C158.269 49.9867 156.389 47.88 155.909 44.12C156.043 43.6667 156.109 43.4 156.109 43.32C156.109 43.0533 155.949 42.9067 155.629 42.88C155.336 42.8267 155.029 42.8 154.709 42.8C153.616 42.8 152.443 43.08 151.189 43.64L149.269 45.4C148.896 45.7467 148.576 46.2133 148.309 46.8C148.043 47.3867 147.563 48 146.869 48.64C146.603 48.9067 146.096 49.1733 145.349 49.44C144.603 49.7067 143.723 50 142.709 50.32C142.709 50.4267 142.549 50.5467 142.229 50.68C141.936 50.84 141.589 50.9733 141.189 51.08C140.789 51.1867 140.389 51.28 139.989 51.36C139.589 51.44 139.296 51.48 139.109 51.48C138.949 51.48 138.803 51.4533 138.669 51.4C138.563 51.3467 138.469 51.32 138.389 51.32C138.256 51.32 138.229 51.36 138.309 51.44C137.323 51.68 136.496 50.8667 135.829 49C135.936 47.7733 135.483 47.16 134.469 47.16C134.123 47.16 133.603 47.2133 132.909 47.32C132.216 47.4267 131.643 47.48 131.189 47.48L130.989 47.12C130.136 46.96 129.416 46.4267 128.829 45.52C128.243 44.6133 127.949 43.4667 127.949 42.08C127.949 41.3067 128.083 40.5467 128.349 39.8C128.616 39.0267 128.936 38.1867 129.309 37.28C129.603 36.5867 129.909 35.8933 130.229 35.2C130.576 34.5067 130.896 33.8133 131.189 33.12L134.429 25.6L134.549 25.56C134.603 25.56 134.683 25.4667 134.789 25.28C134.896 25.0667 135.016 24.84 135.149 24.6C135.283 24.3333 135.416 24.0667 135.549 23.8C135.683 23.5067 135.789 23.2667 135.869 23.08C136.483 22.04 137.323 21.0267 138.389 20.04C139.456 19.0533 140.603 18.1867 141.829 17.44L142.229 17.2C142.496 17.84 142.709 18.16 142.869 18.16C142.976 18.16 143.056 18.0133 143.109 17.72L143.229 16.68C143.363 15.6667 143.603 15.08 143.949 14.92C144.243 15.3733 144.483 15.6 144.669 15.6C144.749 15.6 144.869 15.44 145.029 15.12C145.216 14.8 145.349 14.6 145.429 14.52C146.336 13 147.309 12.24 148.349 12.24C148.856 12.24 149.389 12.3733 149.949 12.64L152.829 13.88C152.856 14.0133 152.869 14.1467 152.869 14.28C152.896 14.4133 152.909 14.5333 152.909 14.64C152.909 15.8933 152.003 17.7733 150.189 20.28C149.656 21.0533 149.216 21.68 148.869 22.16C148.549 22.64 148.323 22.9733 148.189 23.16C147.443 24.36 147.096 25.4533 147.149 26.44C147.283 26.5733 147.349 26.6667 147.349 26.72C147.349 26.6933 147.309 26.72 147.229 26.8C147.176 26.8533 147.149 26.9867 147.149 27.2C147.256 27.2 147.323 27.2667 147.349 27.4C147.376 27.5067 147.416 27.5733 147.469 27.6C147.496 27.6533 147.576 27.6533 147.709 27.6C147.789 27.4667 147.856 27.2533 147.909 26.96L147.949 26.32C147.976 25.8133 148.083 25.56 148.269 25.56C148.616 25.56 149.123 25.6133 149.789 25.72C150.483 25.8 151.003 25.84 151.349 25.84C152.123 25.84 152.669 25.9067 152.989 26.04C153.256 25.9867 153.403 25.96 153.429 25.96C153.909 25.96 154.389 26.2533 154.869 26.84C155.349 27.4 155.776 28.0667 156.149 28.84C156.549 29.6133 156.869 30.4133 157.109 31.24C157.376 32.04 157.523 32.6667 157.549 33.12C157.416 33.6533 157.136 34.2933 156.709 35.04C156.309 35.7867 155.936 36.4533 155.589 37.04C156.603 36.64 157.669 35.72 158.789 34.28C159.643 33.1867 160.589 31.6533 161.629 29.68C162.696 27.68 164.003 25.4133 165.549 22.88C166.589 21.1733 167.603 19.84 168.589 18.88C169.576 17.92 170.496 17.3333 171.349 17.12C172.363 17.04 173.296 17.4133 174.149 18.24C175.029 19.0667 175.469 20.2133 175.469 21.68C175.469 22.4533 175.269 23.3067 174.869 24.24C174.496 25.1733 173.963 26.3733 173.269 27.84C173.003 28.4 172.736 28.9467 172.469 29.48C172.229 29.9867 171.976 30.4933 171.709 31L170.549 33.24C170.283 33.8 169.909 34.4933 169.429 35.32C168.976 36.1467 168.483 37.1333 167.949 38.28C167.709 38.8933 167.589 39.48 167.589 40.04C167.589 40.44 167.669 40.8267 167.829 41.2L175.509 34.4ZM134.509 25.32C134.509 25.16 134.576 25.04 134.709 24.96C134.869 24.8533 134.963 24.7733 134.989 24.72C134.856 24.8267 134.696 25.0267 134.509 25.32ZM149.669 28.92C149.803 28.9467 149.963 28.96 150.149 28.96C150.389 28.96 150.283 28.88 149.829 28.72C149.403 28.5333 149.016 28.3467 148.669 28.16L147.909 28.56C147.803 28.6133 147.616 28.68 147.349 28.76C147.083 28.84 146.936 28.88 146.909 28.88C146.669 28.88 146.509 29.0533 146.429 29.4C146.376 29.72 146.229 29.88 145.989 29.88C143.936 31.2933 142.136 33.44 140.589 36.32C140.296 36.8533 139.843 37.8 139.229 39.16C138.643 40.52 137.883 42.2933 136.949 44.48C136.576 44.9067 136.389 45.3067 136.389 45.68C136.389 46.16 136.683 46.4 137.269 46.4C137.483 46.4 137.709 46.32 137.949 46.16C138.216 46 138.469 45.8133 138.709 45.6C138.949 45.36 139.176 45.1067 139.389 44.84C139.603 44.5733 139.763 44.32 139.869 44.08L140.229 43.88C140.656 43 141.736 41.6267 143.469 39.76C144.963 38.16 145.936 36.6933 146.389 35.36C146.309 35.4133 146.429 35.4667 146.749 35.52C147.069 35.5733 147.323 35.6 147.509 35.6C147.643 35.6 147.696 35.4667 147.669 35.2C147.669 34.9067 147.749 34.7067 147.909 34.6L147.549 33.84C147.523 33.76 147.549 33.6267 147.629 33.44C147.736 33.2533 147.843 33.0533 147.949 32.84C148.083 32.6267 148.203 32.4133 148.309 32.2C148.443 31.96 148.509 31.76 148.509 31.6H149.869C149.869 31.52 149.909 31.44 149.989 31.36C150.069 31.2533 150.109 31.1867 150.109 31.16C150.109 31.1067 150.083 31.0533 150.029 31L149.669 30.64C149.509 30.48 149.429 30.2933 149.429 30.08C149.429 29.9467 149.469 29.76 149.549 29.52C149.629 29.2533 149.669 29.0533 149.669 28.92ZM150.629 34.8C150.576 34.7733 150.496 34.76 150.389 34.76C149.963 34.76 149.749 34.9333 149.749 35.28C149.749 35.3333 149.816 35.44 149.949 35.6C150.083 35.7333 150.176 35.8 150.229 35.8C150.389 35.8 150.509 35.6667 150.589 35.4C150.669 35.1333 150.683 34.9333 150.629 34.8ZM139.869 17C140.029 16.8133 140.109 16.76 140.109 16.84C140.136 16.92 140.123 17.0133 140.069 17.12C140.043 17.2267 140.003 17.3067 139.949 17.36C139.896 17.3867 139.869 17.2667 139.869 17ZM145.629 12.64C145.816 12.64 145.869 12.6667 145.789 12.72C145.709 12.7467 145.656 12.72 145.629 12.64ZM146.749 10.92C146.909 10.76 146.989 10.7333 146.989 10.84C147.016 10.92 147.016 11.0267 146.989 11.16C146.963 11.2667 146.909 11.3333 146.829 11.36C146.776 11.36 146.749 11.2133 146.749 10.92ZM161.949 49.8C161.843 49.8 161.789 49.8133 161.789 49.84C161.789 49.84 161.803 49.8667 161.829 49.92C161.883 49.9733 161.923 49.9333 161.949 49.8Z" fill="#D1C80A"/>
</svg>
