<svg width="444" height="77" viewBox="0 0 444 77" fill="none" xmlns="http://www.w3.org/2000/svg">
<path d="M59.3332 29.2538C56.3312 23.0393 51.1243 18.5931 46.1298 13.8437L35.2375 3.48599C34.308 2.6021 32.4218 0 30.9862 0C29.6312 0 27.8779 2.39992 27.0014 3.23369L16.1092 13.5914C11.9914 17.5071 7.52835 21.2206 4.41861 25.97C2.84496 28.4864 1.67215 31.2106 0.938378 34.054C-0.157547 38.2272 -0.295311 42.576 0.534453 46.8045C1.36422 51.0329 3.14204 55.0418 5.74697 58.5583C10.7945 65.3791 18.4192 71.1138 24.6089 77H24.8745C26.1232 75.8126 29.1782 71.7201 30.9848 71.7201C32.7914 71.7201 35.8464 75.8379 37.0951 77C40.522 74.7265 43.4178 71.2402 46.3934 68.4109C49.794 65.1772 53.6713 62.0953 56.4089 58.306C62.4682 49.8679 63.8496 38.6263 59.3332 29.2538ZM44.0037 58.8109C42.5424 60.2005 39.4874 64.3939 37.3622 64.6464C34.7587 64.9497 33.4834 59.8466 30.9862 59.8466C28.5155 59.8466 27.3473 64.3696 24.8759 64.6464C23.5476 64.7979 21.9533 62.6255 21.1567 61.8424C17.9421 58.8109 14.1699 55.8048 11.9384 51.9902C8.08623 45.3713 7.82062 37.086 12.018 30.517C14.0636 27.3087 17.0656 24.8077 19.8284 22.1794L27.7983 14.6006C28.5433 13.8922 29.8172 12.125 30.9862 12.125C32.7914 12.125 36.1135 16.3186 37.0965 17.6321L25.9387 28.2424C20.8384 33.0924 15.8435 38.0947 18.4203 45.4209C19.5627 48.7557 22.5647 50.524 24.6094 53.2523H24.8751C25.8581 51.9387 29.1788 47.7451 30.9854 47.7451C32.792 47.7451 36.1126 51.9387 37.0957 53.2523H37.3613C38.61 51.585 40.39 50.3472 41.665 48.705C44.7467 44.7389 44.7201 40.242 42.9401 35.8212L37.3613 41.1262H37.0957C35.847 39.9388 31.5699 37.0841 31.5699 35.3158C31.5699 34.3052 33.2169 33.1938 33.9077 32.5366L40.5493 26.221C41.2401 25.564 42.3831 23.9979 43.4719 23.9979C44.4017 23.9979 45.2771 25.16 45.8627 25.7144C47.6965 27.4828 49.3163 29.3269 50.565 31.5249C56.0656 41.481 51.7089 51.4847 44.0046 58.8109H44.0037Z" fill="url(#paint0_linear)"/>
<path d="M96.4201 59.6934C91.5079 57.5042 87.4597 53.793 84.8937 49.1269C83.3774 46.0812 83.1938 45.1277 83.1938 39.4547C83.1938 33.7817 83.3774 32.8282 84.8937 29.7841C88.1081 23.3382 96.0565 17.9689 102.367 17.9689H104.794L102.792 21.6119C100.791 25.2533 100.002 26.1495 95.1474 30.2685C88.5952 35.8217 89.9896 46.6787 97.9381 51.2243C100.055 52.306 102.392 52.9049 104.777 52.9771C107.161 53.0492 109.531 52.5926 111.711 51.6409C113.895 50.5661 118.08 45.6121 118.08 44.1778C118.08 43.8792 116.079 43.641 113.59 43.641H109.101L106.916 39.998C106.098 38.7557 105.369 37.4595 104.732 36.1186C104.732 35.9988 109.706 35.9381 115.835 35.9988L126.878 36.1779L126.818 40.3558C126.854 43 126.352 45.6244 125.341 48.0748C124.33 50.5253 122.831 52.7524 120.933 54.6245C116.2 59.3408 112.986 60.5942 105.643 60.7731C100.727 60.8863 98.9689 60.7075 96.4201 59.6934Z" fill="white"/>
<path d="M135.673 60.6483C135.673 59.8721 157.271 17.9623 157.635 17.9623C157.937 17.9623 163.035 27.6346 169.04 39.4597L179.961 60.9568H170.252L168.311 57.0758L166.371 53.1964H149.018L148.047 55.1655C147.198 56.8984 146.347 57.435 141.86 59.0465C136.584 60.9468 135.673 61.1849 135.673 60.6483ZM162.362 45.6035C161.66 43.9126 160.871 42.2584 159.995 40.6476L157.63 36.2282L155.143 41.1252L152.656 46.0202H157.508C159.138 46.1604 160.781 46.0195 162.362 45.6035Z" fill="white"/>
<path d="M187.851 39.3955C187.851 22.4406 188.032 17.8982 188.639 18.082C189.003 18.2609 193.918 24.6462 199.557 32.3507C205.142 40.052 209.873 46.3797 210.175 46.4404C210.418 46.5011 215.211 40.1125 220.85 32.2914C226.492 24.4146 231.468 17.9638 231.953 17.9638C232.62 17.9638 232.742 21.845 232.742 39.4612V60.9583H224.248V42.9268L217.696 51.7636C214.116 56.6588 210.778 60.7187 210.233 60.8385C209.626 60.9583 206.957 57.7928 202.708 51.8818L196.036 42.807L195.854 51.8818L195.672 60.9583H187.851V39.3955Z" fill="white"/>
<path d="M243.908 57.2421L246.033 53.4809L265.812 53.3023L285.528 53.1825V60.9428H241.786L243.908 57.2421Z" fill="white"/>
<path d="M294.022 39.5154C294.022 27.6345 294.143 17.9623 294.325 17.9623C295.784 18.6158 297.202 19.3533 298.573 20.171L302.457 22.3797L302.638 29.1849L302.82 35.9906L309.192 26.9157C313.318 21.1246 315.864 17.9591 316.473 18.0789C319.178 20.9188 321.615 23.9945 323.753 27.2683L330.12 36.2843L330.302 29.3592L330.483 22.3749L334.245 20.2251L338.007 18.0756L338.432 20.8801C338.614 22.3734 338.857 32.0387 338.857 42.3115C338.916 57.2972 338.734 60.9403 338.127 60.9403C337.706 60.9403 332.731 54.4912 327.028 46.6127C321.388 38.7916 316.594 32.4031 316.352 32.4622C316.05 32.5245 311.319 38.8505 305.734 46.5518C300.093 54.2547 295.18 60.6435 294.815 60.829C294.206 61.0062 294.022 56.4687 294.022 39.5154Z" fill="white"/>
<path d="M346.802 60.6483C346.802 59.8721 368.399 17.9623 368.762 17.9623C369.069 17.9623 374.165 27.6346 380.172 39.4597L391.092 60.9568H381.384L379.444 57.0758L377.503 53.1964H360.146L359.176 55.1655C358.328 56.8984 357.478 57.435 352.989 59.0465C347.718 60.9468 346.802 61.1849 346.802 60.6483ZM373.491 45.6035C372.792 43.9113 372.002 42.257 371.124 40.6476L368.757 36.2282L366.273 41.1252L363.788 46.0202H368.638C370.268 46.1601 371.911 46.0192 373.491 45.6035Z" fill="white"/>
<path d="M398.438 59.8089C398.924 59.1525 402.623 54.3771 406.688 49.1816C410.814 43.9878 414.152 39.5721 414.152 39.3932C414.152 38.7368 407.905 30.8596 402.505 24.7058C399.594 21.3647 397.167 18.4997 397.167 18.3209C399.372 17.9727 401.609 17.8523 403.839 17.9615H410.451L415.426 24.2303C417.085 26.4516 418.911 28.5473 420.888 30.5003C422.902 28.5822 424.729 26.4833 426.346 24.2303L431.321 17.9615H437.691C443.697 17.9615 443.998 18.0222 443.151 19.0364C440.844 21.662 435.383 28.7084 435.383 29.0071C435.447 30.2592 435.325 30.5594 434.898 30.2591C434.414 29.9604 411.178 58.8555 410.632 60.4079C408.468 60.9197 406.236 61.1014 404.016 60.9464C397.831 60.9464 397.649 60.8855 398.438 59.8089Z" fill="white"/>
<path d="M253.98 39.7524V35.873H285.529V43.6334H253.98V39.7524Z" fill="white"/>
<path d="M243.426 22.0828C242.607 20.84 241.877 19.5433 241.24 18.2018C241.24 18.0821 251.191 17.9623 263.386 17.9623H285.528V25.7226H245.609L243.426 22.0828Z" fill="white"/>
<path d="M338.493 27.2156C338.493 24.5895 338.613 23.572 338.733 25.0065C338.857 26.5962 338.857 28.1928 338.733 29.7825C338.615 30.979 338.493 29.8417 338.493 27.2156Z" fill="white"/>
<path d="M294.263 24.5288C294.263 21.0662 294.321 19.6925 294.445 21.4238C294.565 23.5128 294.565 25.6068 294.445 27.6958C294.325 29.3647 294.263 27.9929 294.263 24.5288Z" fill="white"/>
<path d="M302.088 25.1261C302.088 23.6341 302.207 23.0366 302.33 23.8129C302.453 24.7051 302.453 25.6092 302.33 26.5013C302.21 27.2169 302.088 26.6196 302.088 25.1261Z" fill="white"/>
<path d="M338.494 27.213C338.494 24.5869 338.614 23.5694 338.734 25.0039C338.858 26.5936 338.858 28.1902 338.734 29.7799C338.616 30.9765 338.494 29.8391 338.494 27.213Z" fill="white"/>
<path d="M302.09 25.1241C302.09 23.6322 302.208 23.0347 302.332 23.811C302.454 24.7031 302.454 25.6072 302.332 26.4993C302.212 27.215 302.09 26.6177 302.09 25.1241Z" fill="white"/>
<defs>
<linearGradient id="paint0_linear" x1="31" y1="0" x2="31" y2="90.244" gradientUnits="userSpaceOnUse">
<stop stop-color="#62D100"/>
<stop offset="0.891" stop-color="#5DC500"/>
<stop offset="1" stop-color="#386F08"/>
</linearGradient>
</defs>
</svg>
