<svg width="252" height="691" viewBox="0 0 252 691" fill="none" xmlns="http://www.w3.org/2000/svg">
<path d="M494.763 262.535C469.73 206.77 426.311 166.873 384.663 124.255L293.835 31.313C286.085 23.3815 270.356 0.0322266 258.385 0.0322266C247.086 0.0322266 232.466 21.5674 225.157 29.0489L134.33 121.991C99.9927 157.128 62.7767 190.45 36.8455 233.068C23.7233 255.648 13.9436 280.093 7.82486 305.607C-1.31374 343.055 -2.46252 382.078 4.45665 420.021C11.3758 457.964 26.2006 493.937 47.9223 525.492C90.0125 586.696 153.592 638.155 205.206 690.974H207.421C217.834 680.319 243.309 643.595 258.373 643.595C273.438 643.595 298.913 680.546 309.325 690.974C337.902 670.573 362.048 639.29 386.861 613.901C415.218 584.885 447.55 557.23 470.377 523.228C520.904 447.51 532.423 346.636 494.763 262.535ZM366.934 527.758C354.749 540.228 329.274 577.855 311.552 580.122C289.843 582.843 279.208 537.052 258.385 537.052C237.782 537.052 228.041 577.638 207.433 580.122C196.356 581.481 183.062 561.988 176.42 554.961C149.614 527.758 118.159 500.783 99.5507 466.554C67.4287 407.161 65.2139 332.815 100.215 273.869C117.272 245.08 142.305 222.638 165.343 199.054L231.802 131.048C238.014 124.691 248.637 108.833 258.385 108.833C273.438 108.833 301.14 146.463 309.337 158.25L216.295 253.459C173.765 296.979 132.115 341.866 153.602 407.606C163.128 437.53 188.161 453.397 205.211 477.879H207.426C215.624 466.092 243.313 428.461 258.378 428.461C273.443 428.461 301.132 466.092 309.33 477.879H311.545C321.958 462.918 336.8 451.811 347.433 437.075C373.13 401.486 372.908 361.135 358.065 321.465L311.545 369.069H309.33C298.918 358.413 263.252 332.798 263.252 316.93C263.252 307.862 276.986 297.889 282.747 291.991L338.129 235.32C343.889 229.425 353.42 215.372 362.5 215.372C370.253 215.372 377.552 225.799 382.436 230.775C397.728 246.642 411.234 263.19 421.647 282.913C467.515 372.252 431.185 462.018 366.941 527.758H366.934Z" fill="url(#paint0_linear)"/>
<defs>
<linearGradient id="paint0_linear" x1="258.5" y1="0.0322266" x2="258.5" y2="809.816" gradientUnits="userSpaceOnUse">
<stop stop-color="#62D100" stop-opacity="0.76"/>
<stop offset="0.891" stop-color="#3C641C" stop-opacity="0.102"/>
<stop offset="1" stop-color="#17181C"/>
</linearGradient>
</defs>
</svg>
