<svg width="139" height="186" viewBox="0 0 139 186" fill="none" xmlns="http://www.w3.org/2000/svg">
<path opacity="0.5" d="M133.021 70.6651C126.291 55.6534 114.617 44.9133 103.42 33.4406L79.0003 8.42071C76.9164 6.28558 72.6875 0 69.4691 0C66.4313 0 62.5005 5.79722 60.5355 7.81124L36.1157 32.8312C26.8839 42.2898 16.8781 51.2601 9.90623 62.7328C6.37822 68.8113 3.74885 75.3919 2.10378 82.2602C-0.35321 92.3411 -0.662069 102.846 1.19821 113.06C3.05849 123.274 7.04425 132.958 12.8843 141.453C24.2007 157.929 41.2946 171.781 55.1715 186H55.767C58.5665 183.132 65.4157 173.246 69.4659 173.246C73.5162 173.246 80.3653 183.193 83.1649 186C90.8478 180.508 97.3398 172.087 104.011 165.252C111.635 157.441 120.328 149.996 126.465 140.843C140.05 120.46 143.147 93.3051 133.021 70.6651ZM98.6535 142.063C95.3773 145.419 88.5282 155.549 83.7636 156.159C77.9268 156.891 75.0676 144.564 69.4691 144.564C63.9298 144.564 61.3108 155.49 55.7702 156.159C52.7921 156.525 49.2178 151.277 47.432 149.386C40.225 142.063 31.768 134.801 26.7651 125.587C18.1288 109.598 17.5333 89.5844 26.9437 73.7164C31.5297 65.9664 38.26 59.925 44.4539 53.5762L62.3219 35.269C63.9921 33.5578 66.8482 29.2889 69.4691 29.2889C73.5162 29.2889 80.964 39.4188 83.1681 42.5919L58.1528 68.222C46.7183 79.9375 35.5202 92.0209 41.2972 109.718C43.8584 117.773 50.5887 122.045 55.1728 128.635H55.7683C57.9723 125.462 65.417 115.332 69.4672 115.332C73.5175 115.332 80.9621 125.462 83.1662 128.635H83.7617C86.5612 124.608 90.5517 121.618 93.4103 117.651C100.319 108.071 100.259 97.208 96.269 86.5291L83.7617 99.3438H83.1662C80.3666 96.4755 70.7777 89.5798 70.7777 85.3082C70.7777 82.8671 74.4701 80.1823 76.0189 78.5948L90.9089 63.3389C92.4577 61.7521 95.0201 57.9689 97.4612 57.9689C99.5458 57.9689 101.508 60.776 102.821 62.1154C106.933 66.387 110.564 70.8415 113.364 76.151C125.695 100.201 115.928 124.366 98.6554 142.063H98.6535Z" fill="url(#paint0_linear)"/>
<defs>
<linearGradient id="paint0_linear" x1="69.5" y1="0" x2="69.5" y2="217.992" gradientUnits="userSpaceOnUse">
<stop stop-color="#62D100" stop-opacity="0.76"/>
<stop offset="0.891" stop-color="#3C641C" stop-opacity="0.102"/>
<stop offset="1" stop-color="#17181C"/>
</linearGradient>
</defs>
</svg>
