<svg width="209" height="560" viewBox="0 0 209 560" fill="none" xmlns="http://www.w3.org/2000/svg">
<path d="M191.021 213.178C170.781 168.096 135.677 135.841 102.004 101.387L28.5691 26.2487C22.3024 19.8366 9.58543 0.960052 -0.0928192 0.960052C-9.22824 0.960052 -21.0488 18.37 -26.9581 24.4184L-100.393 99.5569C-128.155 127.963 -158.244 154.902 -179.21 189.356C-189.819 207.611 -197.726 227.373 -202.674 248C-210.062 278.274 -210.991 309.822 -205.397 340.496C-199.803 371.171 -187.817 400.253 -170.254 425.763C-136.224 475.244 -84.8191 516.845 -43.0886 559.546H-41.2978C-32.8791 550.932 -12.2823 521.243 -0.102432 521.243C12.0775 521.243 32.6741 551.116 41.0929 559.546C64.1971 543.053 83.7197 517.762 103.781 497.237C126.708 473.779 152.849 451.422 171.305 423.933C212.156 362.72 221.47 281.169 191.021 213.178ZM87.6702 427.596C77.8181 437.676 57.2214 468.096 42.8933 469.929C25.3411 472.129 16.7427 435.109 -0.0928192 435.109C-16.7506 435.109 -24.6265 467.92 -41.2881 469.929C-50.2439 471.028 -60.9924 455.268 -66.3628 449.587C-88.0355 427.596 -113.467 405.788 -128.512 378.116C-154.483 330.1 -156.274 269.995 -127.975 222.341C-114.184 199.067 -93.9448 180.924 -75.3185 161.857L-21.5858 106.878C-16.5632 101.739 -7.97452 88.9189 -0.0928192 88.9189C12.0774 88.9189 34.4746 119.341 41.1025 128.87L-34.1232 205.841C-68.509 241.024 -102.184 277.313 -84.8113 330.46C-77.1093 354.651 -56.8699 367.479 -43.0847 387.271H-41.294C-34.666 377.742 -12.2785 347.32 -0.0986023 347.32C12.0813 347.32 34.4688 377.742 41.0968 387.271H42.8875C51.3063 375.176 63.3065 366.197 71.903 354.284C92.6793 325.512 92.4997 292.89 80.4994 260.82L42.8875 299.304H41.0968C32.678 290.69 3.84225 269.982 3.84225 257.153C3.84225 249.822 14.9462 241.76 19.6037 236.992L64.3806 191.176C69.0381 186.411 76.744 175.049 84.0848 175.049C90.3535 175.049 96.255 183.48 100.204 187.502C112.567 200.33 123.487 213.708 131.906 229.653C168.991 301.878 139.618 374.449 87.676 427.596H87.6702Z" fill="url(#paint0_linear)"/>
<defs>
<linearGradient id="paint0_linear" x1="-1.52588e-05" y1="0.960052" x2="-1.52588e-05" y2="655.623" gradientUnits="userSpaceOnUse">
<stop stop-color="#62D100" stop-opacity="0.76"/>
<stop offset="0.891" stop-color="#3C641C" stop-opacity="0.102"/>
<stop offset="1" stop-color="#17181C"/>
</linearGradient>
</defs>
</svg>
