<svg width="147" height="147" viewBox="0 0 147 147" fill="none" xmlns="http://www.w3.org/2000/svg">
<g clip-path="url(#clip0)">
<path d="M146.221 107.309C146.043 106.925 145.877 106.607 145.723 106.352C143.172 101.759 138.298 96.1206 131.104 89.4362L130.952 89.2831L130.876 89.208L130.799 89.1311H130.722C127.457 86.0185 125.389 83.9257 124.523 82.8542C122.939 80.8131 122.584 78.747 123.45 76.6537C124.062 75.072 126.359 71.7318 130.338 66.6285C132.431 63.9239 134.089 61.7563 135.313 60.1232C144.14 48.387 147.968 40.8874 146.794 37.6214L146.338 36.8582C146.031 36.3987 145.24 35.9784 143.966 35.595C142.689 35.2125 141.057 35.1492 139.066 35.4042L117.024 35.5564C116.667 35.4299 116.157 35.4417 115.493 35.595C114.83 35.7484 114.498 35.8253 114.498 35.8253L114.114 36.017L113.81 36.2473C113.554 36.3995 113.274 36.6673 112.967 37.0502C112.663 37.4316 112.408 37.8793 112.204 38.3894C109.804 44.5634 107.076 50.3037 104.013 55.6099C102.125 58.774 100.391 61.5161 98.808 63.8379C97.2266 66.1589 95.8999 67.8689 94.8292 68.965C93.757 70.0623 92.7892 70.9413 91.9201 71.6053C91.0524 72.2696 90.39 72.5503 89.9313 72.4476C89.4715 72.3449 89.0386 72.243 88.6287 72.1412C87.9148 71.6817 87.3406 71.0568 86.9077 70.266C86.4729 69.4752 86.1801 68.4798 86.0271 67.2807C85.8748 66.0809 85.7847 65.0488 85.759 64.181C85.7351 63.3143 85.7461 62.0884 85.7979 60.5068C85.8509 58.9244 85.8748 57.8537 85.8748 57.2923C85.8748 55.3531 85.9126 53.2485 85.9885 50.9779C86.0657 48.7073 86.1281 46.9083 86.1804 45.5829C86.2324 44.2562 86.2565 42.8526 86.2565 41.3728C86.2565 39.8931 86.1665 38.7326 85.9885 37.8903C85.8126 37.0491 85.5427 36.2325 85.1869 35.4409C84.829 34.6501 84.3052 34.0384 83.6179 33.6041C82.9292 33.1703 82.073 32.8261 81.054 32.5704C78.3494 31.9584 74.9055 31.6273 70.7206 31.5758C61.2306 31.474 55.1327 32.0868 52.4284 33.4135C51.3569 33.974 50.3873 34.7399 49.5203 35.7087C48.6017 36.8317 48.4735 37.4445 49.1367 37.5453C52.1987 38.004 54.3663 39.1012 55.6421 40.8359L56.1018 41.7551C56.4594 42.4183 56.8165 43.5925 57.1738 45.276C57.5306 46.9595 57.7609 48.8218 57.8622 50.8618C58.1169 54.5872 58.1169 57.7762 57.8622 60.4291C57.6068 63.083 57.3655 65.149 57.1352 66.6288C56.9049 68.1086 56.5607 69.3076 56.1018 70.2258C55.6421 71.1442 55.3362 71.7056 55.1828 71.9093C55.0298 72.113 54.9022 72.2414 54.8008 72.2918C54.1376 72.546 53.4479 72.6754 52.734 72.6754C52.019 72.6754 51.1521 72.3178 50.1318 71.6032C49.1118 70.8885 48.0532 69.9068 46.9559 68.6565C45.8587 67.4059 44.6213 65.6584 43.2431 63.4135C41.866 61.1687 40.4372 58.5156 38.9575 55.4542L37.7332 53.234C36.9678 51.8057 35.9223 49.726 34.5956 46.9967C33.2681 44.2664 32.0948 41.6254 31.0748 39.0741C30.667 38.0026 30.0545 37.1869 29.2382 36.6255L28.8551 36.3952C28.6004 36.1915 28.1916 35.9752 27.6308 35.7446C27.0692 35.5144 26.4832 35.3492 25.8704 35.2476L4.8993 35.3999C2.75633 35.3999 1.3023 35.8854 0.536682 36.855L0.230275 37.3137C0.0772051 37.5691 0 37.9771 0 38.5388C0 39.1001 0.15307 39.7891 0.459477 40.6048C3.52087 47.7999 6.85007 54.739 10.4471 61.4231C14.0441 68.1072 17.1698 73.4915 19.8224 77.571C22.4755 81.6535 25.1798 85.5065 27.9354 89.1282C30.6909 92.7512 32.5149 95.073 33.4073 96.093C34.3008 97.1149 35.0026 97.8789 35.5127 98.389L37.4265 100.226C38.651 101.45 40.4493 102.917 42.822 104.626C45.1952 106.336 47.8226 108.02 50.7055 109.679C53.5889 111.336 56.9433 112.689 60.7706 113.734C64.5973 114.781 68.3219 115.201 71.9449 114.999H80.7468C82.5319 114.844 83.8844 114.283 84.8036 113.314L85.1081 112.931C85.3129 112.626 85.5046 112.153 85.6815 111.516C85.8606 110.879 85.9496 110.176 85.9496 109.412C85.8973 107.218 86.0643 105.241 86.4461 103.481C86.8275 101.721 87.2623 100.394 87.7486 99.501C88.2346 98.6083 88.7831 97.855 89.3935 97.2443C90.0053 96.6323 90.4412 96.2616 90.6969 96.134C90.951 96.0056 91.154 95.9185 91.307 95.8662C92.5316 95.4582 93.9727 95.8533 95.6327 97.0535C97.2912 98.2526 98.8469 99.7331 100.302 101.493C101.756 103.254 103.504 105.23 105.544 107.424C107.586 109.618 109.371 111.249 110.902 112.322L112.432 113.241C113.454 113.854 114.78 114.415 116.413 114.925C118.044 115.435 119.472 115.563 120.698 115.308L140.291 115.002C142.229 115.002 143.737 114.681 144.806 114.044C145.878 113.407 146.515 112.704 146.72 111.94C146.925 111.175 146.936 110.307 146.759 109.336C146.578 108.368 146.399 107.691 146.221 107.309Z" fill="url(#paint0_linear)"/>
</g>
<defs>
<linearGradient id="paint0_linear" x1="73.5002" y1="31.5649" x2="73.5002" y2="129.861" gradientUnits="userSpaceOnUse">
<stop stop-color="#62D100" stop-opacity="0.76"/>
<stop offset="0.891" stop-color="#3C641C" stop-opacity="0.102"/>
<stop offset="1" stop-color="#17181C"/>
</linearGradient>
<clipPath id="clip0">
<rect width="147" height="147" fill="white"/>
</clipPath>
</defs>
</svg>
