<svg width="121" height="84" viewBox="0 0 121 84" fill="none" xmlns="http://www.w3.org/2000/svg">
<path d="M115.857 8.01625C112.575 2.178 109.013 1.10413 101.761 0.69575C94.5161 0.204188 76.2981 0 60.5151 0C44.7019 0 26.4763 0.204188 19.239 0.688188C12.0017 1.10413 8.43219 2.17044 5.11981 8.01625C1.73937 13.8469 0 23.8899 0 41.5711C0 41.5862 0 41.5938 0 41.5938C0 41.6089 0 41.6164 0 41.6164V41.6316C0 59.2371 1.73937 69.3557 5.11981 75.1259C8.43219 80.9641 11.9941 82.0229 19.2314 82.5144C26.4763 82.9379 44.7019 83.1875 60.5151 83.1875C76.2981 83.1875 94.5161 82.9379 101.769 82.522C109.021 82.0304 112.583 80.9717 115.865 75.1334C119.276 69.3633 121 59.2446 121 41.6391C121 41.6391 121 41.6164 121 41.6013C121 41.6013 121 41.5862 121 41.5786C121 23.8899 119.276 13.8469 115.857 8.01625ZM45.375 64.2812V18.9062L83.1875 41.5938L45.375 64.2812Z" fill="url(#paint0_linear)"/>
<defs>
<linearGradient id="paint0_linear" x1="60.5" y1="0" x2="60.5" y2="97.4957" gradientUnits="userSpaceOnUse">
<stop stop-color="#62D100" stop-opacity="0.76"/>
<stop offset="0.891" stop-color="#3C641C" stop-opacity="0.102"/>
<stop offset="1" stop-color="#17181C"/>
</linearGradient>
</defs>
</svg>
